<svg width="24" height="24" viewBox="0 0 24 24" fill="none" xmlns="http://www.w3.org/2000/svg">
<path fill-rule="evenodd" clip-rule="evenodd" d="M18.0623 2.8145C16.5282 2.00395 15 3.26044 15 4.74343C15 4.80765 14.9759 4.87573 14.9124 4.94126C14.8454 5.01025 14.745 5.06326 14.6302 5.07628C10.5056 5.54428 7.70357 8.08726 5.90487 10.9727C4.11507 13.8438 3.25604 17.1407 3.00616 19.3896C2.95577 19.843 3.2187 20.2731 3.64528 20.435C4.07185 20.5968 4.5539 20.4494 4.81701 20.0767C5.69955 18.8264 7.25333 17.018 9.11432 15.5264C10.9961 14.0181 13.0497 12.9482 14.9574 12.9214L14.9591 12.9232C14.9757 12.9417 15 12.9865 15 13.0513C15 14.647 16.711 15.8519 18.2316 14.9396C19.4939 14.1822 20.9116 13.1527 21.8999 11.9716C22.8685 10.8139 23.6235 9.2496 22.9192 7.60609C21.9204 5.27569 19.7224 3.69156 18.0623 2.8145ZM17 4.74343C17 4.6475 17.0435 4.59762 17.0706 4.57945C17.0837 4.57063 17.0915 4.57013 17.0915 4.57013C17.0915 4.57013 17.0939 4.56997 17.098 4.57085C17.102 4.57172 17.112 4.57438 17.128 4.58286C18.6401 5.38177 20.3507 6.69012 21.0809 8.39393C21.3342 8.98499 21.168 9.72957 20.366 10.6882C19.5835 11.6234 18.3808 12.5177 17.2026 13.2246C17.1679 13.2454 17.1481 13.2462 17.1396 13.246C17.1276 13.2458 17.1094 13.2422 17.0876 13.2288C17.0444 13.2025 17 13.1466 17 13.0513C17 12.0071 16.2167 10.9055 14.9405 10.9215C12.3617 10.9537 9.86947 12.358 7.86349 13.9658C7.14994 14.5378 6.4798 15.15 5.86847 15.7634C6.28592 14.5209 6.85516 13.2289 7.60211 12.0307C9.19243 9.47954 11.5247 7.44148 14.8557 7.06352C15.9756 6.93645 17 6.01824 17 4.74343Z" fill="currentColor"/>
</svg>